<?xml version="1.0" standalone="no"?>
<!DOCTYPE svg PUBLIC "-//W3C//DTD SVG 20010904//EN"
 "http://www.w3.org/TR/2001/REC-SVG-20010904/DTD/svg10.dtd">
<svg version="1.0" xmlns="http://www.w3.org/2000/svg"
 width="484.000000pt" height="298.000000pt" viewBox="0 0 484.000000 298.000000"
 preserveAspectRatio="xMidYMid meet">

<g transform="translate(0.000000,298.000000) scale(0.100000,-0.100000)"
fill="#000000" stroke="none">
<path d="M3116 2363 c-27 -94 -11 -143 49 -143 42 0 62 26 71 93 10 67 -11 60
-27 -10 -15 -61 -35 -77 -66 -52 -12 11 -14 25 -9 71 4 36 3 58 -3 58 -5 0
-12 -8 -15 -17z"/>
<path d="M2871 2344 c-12 -15 -21 -33 -21 -41 0 -26 29 -71 50 -78 28 -9 80 4
87 21 8 20 -5 30 -19 16 -15 -15 -61 -15 -76 0 -7 7 -12 24 -12 40 0 32 30 52
66 45 16 -3 24 0 24 9 0 10 -13 14 -39 14 -31 0 -44 -6 -60 -26z"/>
<path d="M3346 2229 c-41 -68 -41 -69 -23 -69 13 0 77 99 77 119 0 26 -20 7
-54 -50z"/>
<path d="M1171 2254 c-62 -31 -118 -100 -152 -190 -24 -61 -24 -62 -82 -79
-184 -55 -217 -338 -43 -370 24 -5 44 -24 95 -91 35 -46 65 -84 66 -84 2 0 18
24 36 52 44 73 153 183 222 225 62 39 71 48 33 33 -90 -34 -192 -102 -259
-173 -21 -22 -41 -36 -46 -31 -36 43 -61 87 -59 101 2 13 -6 19 -35 24 -21 3
-50 15 -65 26 -56 42 -34 160 41 217 52 40 68 35 61 -16 -5 -42 -4 -41 38 37
91 170 172 255 241 255 31 0 73 -33 93 -72 l16 -30 19 21 c24 26 83 37 115 22
27 -12 54 -65 54 -104 0 -22 -5 -25 -67 -30 -98 -10 -178 -52 -280 -150 -46
-44 -83 -84 -83 -89 0 -5 26 11 58 35 78 60 163 101 249 121 40 9 74 16 77 16
6 0 86 -106 86 -114 0 -2 -17 -10 -37 -17 -106 -34 -237 -113 -315 -191 -47
-47 -112 -137 -104 -145 2 -2 23 15 47 37 57 55 147 119 229 163 61 33 228 92
237 84 2 -2 -25 -33 -60 -69 -175 -178 -206 -394 -72 -487 17 -11 37 -21 43
-21 20 0 13 16 -13 30 -111 59 -74 234 83 401 170 181 368 255 453 170 85 -85
50 -281 -87 -486 -58 -87 -205 -228 -221 -211 -10 9 63 256 119 401 66 174 66
173 33 181 -39 10 -70 -9 -94 -59 -35 -73 -118 -360 -156 -545 l-7 -32 -69 0
c-38 0 -69 -4 -69 -10 0 -17 41 -32 87 -32 l44 0 -8 -56 c-4 -31 -8 -103 -8
-159 0 -88 3 -105 21 -130 12 -15 29 -30 39 -31 15 -3 16 0 9 25 -13 40 -6
173 14 277 l17 90 63 36 c258 150 432 439 395 657 -22 127 -99 195 -220 195
-76 -1 -128 -17 -221 -67 -34 -19 -64 -35 -66 -35 -3 0 -24 33 -47 73 -42 70
-43 75 -44 162 -2 150 -45 200 -167 192 -59 -4 -68 -2 -73 14 -20 62 -115 77
-204 33z"/>
<path d="M3496 2168 c-20 -11 -20 -31 0 -70 12 -23 13 -33 4 -42 -9 -8 -19 -3
-40 22 -15 19 -31 29 -34 24 -3 -6 6 -24 20 -42 20 -23 34 -30 53 -28 22 3 26
8 24 33 -1 17 -4 42 -8 58 -10 36 16 37 43 0 11 -15 22 -22 25 -16 9 14 -27
59 -51 65 -11 3 -27 1 -36 -4z"/>
<path d="M3085 2047 c-8 -19 -19 -61 -24 -93 -6 -33 -19 -86 -29 -119 -17 -50
-25 -62 -52 -73 -18 -7 -34 -11 -37 -8 -3 2 5 26 17 52 20 46 20 49 4 61 -51
37 -101 -2 -131 -103 -19 -65 -21 -67 -68 -85 -27 -10 -50 -17 -52 -16 -1 2 5
26 14 54 19 59 9 83 -33 83 -20 0 -26 -8 -38 -52 -8 -29 -18 -69 -21 -90 -6
-28 -13 -38 -33 -43 -61 -15 -71 -51 -12 -41 35 5 40 4 40 -13 0 -11 3 -27 7
-37 5 -13 12 -5 28 32 19 44 28 52 65 63 23 7 49 15 58 18 12 5 14 1 9 -18 -4
-13 -19 -91 -33 -173 -18 -107 -33 -166 -55 -210 -40 -81 -95 -156 -115 -156
-23 0 -14 59 32 223 40 139 38 151 -16 159 -31 4 -42 -18 -70 -141 -41 -187
-186 -476 -164 -329 3 23 15 84 26 133 35 153 37 169 38 218 0 61 -21 108 -61
131 -26 15 -30 23 -25 45 3 14 9 47 12 73 16 117 -85 132 -116 17 -13 -47 -6
-75 26 -109 l23 -25 -41 -138 c-22 -76 -38 -141 -35 -144 14 -13 29 15 58 110
47 151 47 151 64 137 22 -18 18 -60 -20 -220 -51 -212 -44 -310 24 -327 37 -9
52 6 107 112 43 81 53 94 59 76 3 -12 18 -29 32 -38 23 -15 27 -15 57 1 19 10
48 42 67 72 59 96 57 96 52 -7 -4 -77 -1 -100 14 -128 28 -54 43 -51 43 7 0
126 55 437 109 619 18 62 25 72 49 77 15 4 35 9 44 12 13 4 18 -4 23 -41 4
-25 11 -45 15 -45 5 0 17 24 28 53 13 35 28 56 46 65 15 8 32 25 39 39 9 21 8
27 -7 39 -13 9 -16 19 -11 31 4 10 9 28 11 41 1 13 15 55 30 93 30 77 27 91
-29 104 -24 6 -29 3 -42 -28z m-757 -469 c-4 -49 -28 -66 -28 -20 0 37 9 62
22 62 5 0 8 -19 6 -42z"/>
<path d="M3598 1959 c-52 -26 -75 -49 -48 -49 22 0 130 61 125 70 -8 13 -11
12 -77 -21z"/>
<path d="M3628 1813 c-24 -3 -38 -9 -38 -18 0 -12 10 -13 48 -9 l47 7 -42 -45
c-24 -24 -43 -49 -43 -56 0 -13 42 -15 104 -4 55 10 46 28 -12 24 l-47 -4 43
44 c65 67 59 73 -60 61z"/>
<path d="M3397 1720 c-36 -29 -67 -98 -67 -152 0 -46 21 -95 73 -172 15 -21
27 -49 27 -62 0 -32 -52 -66 -111 -72 -52 -5 -58 -11 -33 -36 39 -40 116 -31
169 18 52 50 45 96 -28 190 -55 69 -39 150 44 241 38 42 39 44 20 54 -30 17
-66 13 -94 -9z"/>
<path d="M3572 1525 c-15 -55 -15 -65 -2 -65 5 0 14 18 20 41 8 30 16 39 28
37 13 -3 16 -12 14 -41 -3 -44 13 -50 22 -7 4 22 11 30 27 30 17 0 20 -4 15
-22 -19 -68 -19 -71 -5 -66 14 5 41 95 30 102 -10 6 -114 36 -126 36 -6 0 -16
-20 -23 -45z"/>
<path d="M2945 1526 c-8 -19 -27 -99 -41 -179 -31 -162 -27 -197 24 -215 52
-18 84 10 155 133 41 72 93 203 84 212 -9 8 -5 15 -69 -117 -63 -129 -113
-204 -130 -194 -17 11 -3 106 35 236 19 64 31 122 27 128 -3 5 -21 15 -39 20
-31 9 -33 7 -46 -24z"/>
<path d="M3315 1039 c-246 -25 -632 -129 -1120 -301 -241 -85 -401 -147 -497
-193 -128 -61 -36 -105 151 -74 75 13 103 29 51 29 l-35 1 29 15 c108 59 466
197 768 298 296 98 652 191 813 212 48 6 55 9 35 15 -32 9 -94 8 -195 -2z"/>
</g>
</svg>
