<?xml version="1.0" standalone="no"?>
<!DOCTYPE svg PUBLIC "-//W3C//DTD SVG 20010904//EN"
 "http://www.w3.org/TR/2001/REC-SVG-20010904/DTD/svg10.dtd">
<svg version="1.0" xmlns="http://www.w3.org/2000/svg"
 width="160.000000pt" height="90.000000pt" viewBox="0 0 160.000000 90.000000"
 preserveAspectRatio="xMidYMid meet">

<g transform="translate(0.000000,90.000000) scale(0.100000,-0.100000)"
fill="#000000" stroke="none">
<path d="M1144 775 c-4 -8 -4 -22 0 -30 6 -17 42 -20 51 -5 4 6 -3 9 -16 7
-30 -3 -36 21 -7 32 l23 10 -23 0 c-12 1 -25 -6 -28 -14z"/>
<path d="M1242 763 c4 -35 37 -38 49 -5 5 13 5 22 -1 22 -6 0 -10 -9 -10 -20
0 -12 -7 -20 -16 -20 -12 0 -15 7 -12 25 3 14 1 25 -4 25 -5 0 -8 -12 -6 -27z"/>
<path d="M1340 740 c-6 -12 -9 -24 -7 -27 3 -2 11 5 17 17 6 12 9 24 7 27 -3
2 -11 -5 -17 -17z"/>
<path d="M447 730 c-14 -11 -32 -36 -38 -55 -7 -19 -19 -35 -27 -35 -24 0 -72
-57 -72 -85 0 -34 17 -65 35 -65 7 0 28 -17 45 -37 29 -36 32 -37 42 -18 6 11
31 40 56 64 27 26 35 38 21 31 -13 -7 -38 -26 -56 -43 -27 -25 -35 -28 -48
-17 -8 7 -15 18 -15 26 0 7 -10 14 -22 16 -33 4 -37 59 -7 89 21 21 23 21 29
5 5 -14 10 -9 25 24 19 43 67 90 91 90 7 0 19 -9 26 -19 9 -15 16 -17 34 -9
27 13 54 -4 54 -32 0 -12 -11 -19 -38 -24 -40 -6 -101 -47 -122 -81 -11 -18
-10 -18 11 2 28 25 89 53 118 53 11 0 27 -10 36 -22 15 -22 14 -23 -25 -36
-38 -13 -140 -95 -140 -113 0 -5 21 8 48 28 45 34 79 52 131 68 23 7 22 4 -12
-36 -40 -46 -62 -105 -51 -135 9 -24 34 -54 46 -54 4 0 -1 9 -12 20 -24 24
-25 34 -1 85 21 44 70 98 116 127 34 20 95 24 113 6 23 -23 14 -97 -19 -158
-30 -57 -94 -129 -104 -118 -3 3 10 54 29 114 35 107 37 128 12 118 -19 -7
-33 -42 -61 -151 -14 -52 -28 -99 -31 -105 -3 -5 -17 -7 -31 -3 -16 4 -22 2
-18 -5 3 -5 16 -10 28 -10 21 0 22 -5 22 -72 0 -39 5 -73 10 -75 6 -2 10 16
10 40 1 88 12 112 64 145 83 54 133 137 134 225 1 39 -4 53 -26 75 -33 33 -89
35 -141 4 l-35 -21 -21 33 c-11 20 -20 51 -20 74 0 33 -5 45 -25 58 -14 9 -34
14 -46 11 -12 -3 -22 0 -26 9 -8 21 -66 17 -96 -6z"/>
<path d="M1395 683 c6 -27 6 -27 -9 -9 -9 11 -16 15 -16 10 0 -13 21 -34 33
-34 5 0 7 12 4 26 -3 19 -1 24 10 20 8 -3 11 -1 8 4 -3 6 -13 10 -21 10 -10 0
-13 -7 -9 -27z"/>
<path d="M1231 648 c-5 -13 -12 -39 -16 -58 -7 -33 -20 -49 -38 -50 -4 0 -3 9
3 19 15 28 13 33 -12 29 -15 -2 -26 -14 -33 -33 -10 -32 -22 -45 -43 -45 -9 0
-10 5 -2 19 7 13 7 22 0 26 -15 9 -27 -2 -35 -32 -3 -15 -14 -33 -23 -40 -16
-12 -16 -12 1 -13 9 0 17 -6 17 -12 0 -7 8 -4 18 8 24 29 55 40 48 16 -3 -9
-8 -39 -12 -67 -6 -50 -50 -145 -66 -145 -11 0 -11 4 8 78 14 54 14 66 3 73
-17 10 -23 0 -38 -66 -7 -27 -24 -70 -37 -95 l-25 -45 6 40 c18 123 18 158 0
171 -13 9 -16 20 -11 39 9 34 -10 61 -30 44 -16 -13 -19 -65 -5 -73 5 -4 3
-26 -5 -53 -20 -68 -11 -78 12 -13 25 75 32 33 9 -62 -14 -54 -15 -75 -6 -94
6 -13 15 -24 21 -24 9 0 45 50 53 75 2 6 11 4 22 -5 16 -13 20 -11 46 20 l29
34 0 -47 c0 -70 17 -57 25 21 9 87 42 214 58 224 20 13 27 9 27 -13 0 -18 4
-15 25 16 14 20 24 42 22 49 -2 6 2 28 9 50 18 49 17 56 -1 56 -9 0 -19 -10
-24 -22z m-304 -190 c-3 -7 -5 -2 -5 12 0 14 2 19 5 13 2 -7 2 -19 0 -25z"/>
<path d="M1440 625 c-14 -8 -20 -14 -14 -15 5 0 19 7 30 15 24 18 16 19 -16 0z"/>
<path d="M1440 560 c0 -5 8 -7 18 -3 16 6 16 5 0 -14 -10 -11 -18 -23 -18 -26
0 -11 33 -8 50 4 12 9 10 10 -8 6 -22 -5 -23 -4 -8 12 22 24 20 31 -9 31 -14
0 -25 -4 -25 -10z"/>
<path d="M1350 518 c-25 -28 -25 -65 0 -103 27 -41 25 -54 -10 -69 -17 -7 -27
-15 -23 -19 13 -14 50 -7 68 13 17 18 17 21 -4 55 -26 45 -27 75 -1 107 31 40
5 53 -30 16z"/>
<path d="M1427 447 c-6 -21 -6 -21 8 -3 15 19 15 19 16 -5 1 -17 3 -19 6 -6 2
9 9 17 14 17 6 0 8 -10 5 -22 l-6 -23 12 23 c13 26 12 27 -23 35 -22 6 -28 3
-32 -16z"/>
<path d="M1176 452 c-9 -15 -27 -135 -22 -148 3 -8 14 -14 25 -14 20 0 58 53
80 113 18 47 3 30 -29 -33 -17 -33 -35 -60 -40 -60 -13 0 -13 5 5 70 8 30 15
61 15 68 0 13 -26 17 -34 4z"/>
<path d="M1265 245 c-93 -17 -261 -66 -415 -122 -147 -53 -203 -80 -195 -93
11 -17 75 -11 103 10 58 42 413 164 592 203 58 13 60 15 25 15 -22 0 -71 -6
-110 -13z"/>
</g>
</svg>
